<?xml version="1.0" encoding="utf-8"?>
<!-- Generator: Adobe Illustrator 26.3.1, SVG Export Plug-In . SVG Version: 6.00 Build 0)  -->
<svg version="1.1" id="Layer_1" xmlns="http://www.w3.org/2000/svg" xmlns:xlink="http://www.w3.org/1999/xlink" x="0px" y="0px"
	 viewBox="0 0 400 400" style="enable-background:new 0 0 400 400;" xml:space="preserve">
<style type="text/css">
	.st0{fill:#F6F6F6;}
</style>
<g id="XMLID_00000044147498992264742890000008787594148167899063_">
	<g>
		<path d="M366.1,137.2c-1.3-1-2.9-1.7-4.5-2.1L110.8,72.1c-7.1-1.8-14.4,2.6-16.2,9.7l-20.8,82.6c-3,0.6-6,1.3-8.8,2.4l21.9-87
			c2.9-11.4,14.5-18.4,25.9-15.5l250.9,63.1c11.4,2.9,18.4,14.5,15.5,26l-30.9,122.8c-1.4,5.5-4.9,10.2-9.8,13.1
			c-3.4,2-7.2,3.1-11,3.1c-1.7,0-3.5-0.2-5.2-0.6l-96-24.1c-1.6-3.5-3.6-6.7-5.9-9.7l103.9,26.1c3.5,0.9,7,0.3,10.1-1.5
			c3.1-1.9,5.2-4.8,6.1-8.2l30.9-122.8c0.9-3.4,0.3-7-1.5-10.1C368.9,139.6,367.6,138.3,366.1,137.2z"/>
		<path class="st0" d="M369.8,141.3c1.8,3.1,2.4,6.7,1.5,10.1l-30.9,122.8c-0.9,3.4-3,6.4-6.1,8.2c-3.1,1.8-6.7,2.4-10.1,1.5
			l-103.9-26.1c-0.7-0.9-1.4-1.8-2.1-2.6c1-1.2,2.2-2.4,3.4-3.6c3.6-3.6,7.2-6.5,10.3-9.2l77.5,19.5c0.2,0,0.3,0.1,0.5,0.1
			c0.9,0,1.7-0.6,1.9-1.5c1.1-4.2,3.6-7.8,7.1-10.1c3.5-2.2,7.5-3,11.4-2c0.5,0.1,1.1,0,1.5-0.2c0.4-0.3,0.8-0.7,0.9-1.2l18.8-74.8
			c0.1-0.5,0.1-1.1-0.2-1.5c-0.3-0.5-0.7-0.8-1.2-0.9c-0.9-0.2-1.8-0.6-2.6-1c9.7-9.5,15.3-21.4,18.7-31.3
			C367.6,138.3,368.9,139.6,369.8,141.3z"/>
		<path d="M351.3,170.4c0.3,0.5,0.4,1,0.2,1.5l-18.8,74.8c-0.1,0.5-0.5,1-0.9,1.2c-0.5,0.3-1,0.3-1.5,0.2c-3.8-1-7.9-0.3-11.4,2
			c-3.5,2.3-6.1,5.9-7.1,10.1c-0.2,0.9-1,1.5-1.9,1.5c-0.2,0-0.3,0-0.5-0.1l-77.5-19.5c1.3-1.1,2.5-2.2,3.6-3.2l73,18.4
			c1.5-4.4,4.4-8.1,8.2-10.6c3.9-2.5,8.2-3.5,12.6-2.9l17.9-71.2c-1-0.4-2-0.8-2.9-1.4c1.1-0.9,2.1-1.9,3.1-2.9
			c0.8,0.4,1.7,0.7,2.6,1C350.6,169.6,351.1,169.9,351.3,170.4z"/>
		<path class="st0" d="M347.2,172.8l-17.9,71.2c-4.3-0.6-8.7,0.4-12.6,2.9c-3.8,2.5-6.7,6.2-8.2,10.6l-73-18.4
			c3.9-3.7,6.8-7.4,7.7-12.3c1.9-9.4-4.4-15.6,4.5-23.2c6-5.2,12.8-8.2,20-10.2c-0.1,6.3,4.2,12.1,10.6,13.7
			c1.1,0.3,2.3,0.4,3.4,0.4c3.1,0,6.1-1.1,8.5-2.9s4.2-4.5,5-7.7c0,0,0,0,0-0.1c0.7-2.6,0.5-5.2-0.3-7.7c14-1.6,28.7-4.1,43.1-13.2
			c2.2-1.4,4.3-3,6.2-4.6C345.2,171.9,346.2,172.4,347.2,172.8z"/>
		<path d="M347.5,168.5c-1,1-2,2-3.1,2.9c-6.6-4-10.4-12-9.1-20.4l-17.2-4.3c-1.1-0.3-1.7-1.4-1.5-2.4c0.3-1.1,1.3-1.7,2.4-1.4
			l19.1,4.8c1.1,0.3,1.7,1.4,1.5,2.4C337.6,157.7,341.1,165.4,347.5,168.5z"/>
		<path d="M294.1,136.6c1.1,0.3,1.7,1.4,1.5,2.4c-0.2,0.9-1,1.5-1.9,1.5c-0.2,0-0.3,0-0.5-0.1l-3.6-0.9c-1.1-0.3-1.7-1.4-1.4-2.4
			c0.3-1.1,1.3-1.7,2.4-1.4L294.1,136.6z"/>
		<path d="M295,189.2c0.8,2.4,0.9,5,0.3,7.7l-1.9-0.4h0h-2.1c0-0.2,0.1-0.3,0.1-0.5c0.5-2.2,0.3-4.4-0.5-6.3
			C292.3,189.5,293.6,189.4,295,189.2z"/>
		<path d="M295.3,196.9C295.3,196.9,295.3,196.9,295.3,196.9c-0.8,3.2-2.6,5.9-5,7.7s-5.4,2.9-8.5,2.9c-1.1,0-2.3-0.1-3.4-0.4
			c-6.4-1.6-10.7-7.4-10.6-13.7c1.3-0.4,2.7-0.7,4.1-1c-0.6,4.9,2.6,9.6,7.5,10.8c2.6,0.7,5.3,0.3,7.6-1.1c2.1-1.3,3.7-3.3,4.4-5.7
			h2.1h0L295.3,196.9z"/>
		<path class="st0" d="M290.9,189.7c0.8,1.9,1,4.1,0.5,6.3c0,0.2-0.1,0.3-0.1,0.5c-0.7,2.4-2.3,4.4-4.4,5.7c-2.3,1.4-5,1.8-7.6,1.1
			c-4.9-1.2-8-5.9-7.5-10.8C277.9,191.1,284.3,190.4,290.9,189.7z"/>
		<path d="M295,189.2c-1.4,0.2-2.7,0.3-4.1,0.5c-1.2-2.8-3.6-5.1-6.8-5.9c-0.8-0.2-1.6-0.3-2.4-0.3c-4.5,0-8.6,3-9.7,7.6
			c-0.1,0.4-0.2,0.9-0.2,1.3c-1.4,0.3-2.7,0.6-4.1,1c0-1.1,0.1-2.2,0.4-3.2c1.9-7.5,9.5-12,17-10.2
			C289.9,181.2,293.6,184.8,295,189.2z"/>
		<path d="M283.4,133.9c1.1,0.3,1.7,1.4,1.4,2.4c-0.3,1.1-1.3,1.7-2.4,1.4l-156-39.2c-3.2,9-12,14.7-20.8,13.5l-13.1,52.2
			c-1.3-0.2-2.7-0.4-4-0.5l13.7-54.5c0.3-1.1,1.3-1.7,2.4-1.4c8,2,16.3-3.4,18.5-12.1c0.3-1.1,1.3-1.7,2.4-1.4L283.4,133.9z"/>
		<path d="M246.6,161.1c4.9,8.2,6.4,17.9,4,27.2c-4.1,16.3-18.8,27.2-34.9,27.2c-2.9,0-5.8-0.4-8.8-1.1c-19.2-4.8-31-24.4-26.1-43.7
			c4.8-19.2,24.4-30.9,43.7-26.1C233.8,147,241.6,152.8,246.6,161.1z M246.7,187.3c2.1-8.3,0.8-16.9-3.6-24.2
			c-4.4-7.3-11.4-12.5-19.7-14.6c-2.6-0.6-5.2-1-7.8-1c-14.3,0-27.4,9.7-31,24.2c-4.3,17.1,6.1,34.5,23.2,38.8
			C225,214.9,242.4,204.4,246.7,187.3z"/>
		<path d="M139.5,214.9l96,24.1c-1.1,1.1-2.3,2.1-3.6,3.2l-92.2-23.2C139.7,217.7,139.6,216.3,139.5,214.9z"/>
		<path d="M146.2,329.4c8.1,6.4,18.4,10.2,29.5,10.2c26.5,0,48-21.5,48-48c0-11.2-3.9-21.6-10.4-29.8c0.6-1,1.3-1.9,2-2.9
			c1.9,2.2,3.6,4.7,5,7.2l5.9,1.5c3.5,7.3,5.4,15.4,5.4,24c0,30.9-25.1,56-56,56s-56-25.1-56-56c0-18.5,9-34.9,22.8-45.1l6.6,1.7
			c-0.2-0.9,0.2-1.9,1.4-2.2c3.7-0.8,7.3-2,11-3l0.7,2.5c-19.9,5.8-34.5,24.3-34.5,46.1C127.7,306.9,134.9,320.6,146.2,329.4z"/>
		<path d="M226.3,267.5l-5.9-1.5c-1.5-2.5-3.1-5-5-7.2c0.5-0.6,1-1.3,1.5-1.9l3.5,0.9C222.6,260.8,224.6,264,226.3,267.5z"/>
		<path d="M220.3,257.8l-3.5-0.9c0.4-0.6,0.9-1.1,1.4-1.7C219,256,219.7,256.9,220.3,257.8z"/>
		<path d="M218.2,255.2c-0.5,0.6-1,1.1-1.4,1.7l-4.7-1.2c1.2,0.9,2.3,2,3.2,3.1c-0.7,1-1.4,2-2,2.9c-8.8-11.1-22.4-18.2-37.6-18.2
			c-4.7,0-9.2,0.7-13.5,1.9l-0.7-2.5l-9.2-2.3c7.1-3.3,15.1-5.1,23.4-5.1C192.7,235.5,208,243.2,218.2,255.2z"/>
		<path d="M212.1,255.7l4.7,1.2c-0.5,0.6-1,1.3-1.5,1.9C214.3,257.7,213.3,256.6,212.1,255.7z"/>
		<path class="st0" d="M213.3,261.8c6.5,8.2,10.4,18.5,10.4,29.8c0,26.5-21.5,48-48,48c-11.1,0-21.3-3.8-29.5-10.2
			c0.8-4.1,2-8.4,4-12.5c6.5,6.6,15.6,10.6,25.5,10.6c19.9,0,36-16.1,36-36c0-6.2-1.6-12.1-4.4-17.2
			C208.7,270.3,210.5,266.1,213.3,261.8z"/>
		<path d="M207.3,274.3c2.8,5.1,4.4,11,4.4,17.2c0,19.9-16.1,36-36,36c-10,0-19-4.1-25.5-10.6c0.6-1.2,1.3-2.5,2.1-3.6
			c5.9,6.3,14.2,10.3,23.5,10.3c17.7,0,32-14.4,32-32c0-4.1-0.8-8-2.2-11.6C206,278.1,206.6,276.2,207.3,274.3z"/>
		<path class="st0" d="M205.5,279.9c1.4,3.6,2.2,7.5,2.2,11.6c0,17.6-14.3,32-32,32c-9.2,0-17.6-4-23.5-10.3c2-3,4.5-5.7,7.7-7.6
			c11.2-6.8,19.7,1.9,31.8-3.6C201,297.9,202.6,289.8,205.5,279.9z"/>
		<path d="M207.3,274.3c-0.7,1.9-1.3,3.8-1.8,5.6c-4.6-11.9-16.3-20.4-29.8-20.4c-17.6,0-32,14.4-32,32c0,8.4,3.2,16,8.5,21.7
			c-0.8,1.2-1.4,2.4-2.1,3.6c-6.5-6.5-10.5-15.5-10.5-25.4c0-19.9,16.2-36,36-36C189.3,255.5,201.2,263.1,207.3,274.3z"/>
		<path d="M157.1,147.9c7.5,1.9,12,9.5,10.2,17c-0.8,3.2-2.6,5.8-5,7.7s-5.4,2.9-8.5,2.9c-1.1,0-2.3-0.1-3.4-0.4
			c-3.6-0.9-6.7-3.2-8.6-6.4c-1.9-3.2-2.5-7-1.6-10.6C142,150.6,149.6,146.1,157.1,147.9z M163.4,164c1.3-5.4-1.9-10.8-7.3-12.1
			c-0.8-0.2-1.6-0.3-2.4-0.3c-4.5,0-8.6,3-9.7,7.6c-0.7,2.6-0.2,5.3,1.1,7.6c1.4,2.3,3.6,3.9,6.1,4.6c2.6,0.7,5.3,0.3,7.6-1.1
			C161.1,168.7,162.7,166.6,163.4,164z"/>
		<path d="M152.3,240.6l9.2,2.3c-3.6,1-7.2,2.2-11,3c-1.2,0.2-1.6,1.2-1.4,2.2l-6.6-1.7C145.5,244.2,148.8,242.2,152.3,240.6z"/>
		<path d="M136.9,236.8l15.3,3.8c-3.5,1.6-6.7,3.6-9.8,5.8l-8.6-2.2C135.1,241.9,136.1,239.4,136.9,236.8z"/>
		<path d="M139.7,219.1c0,0.1,0,0.3,0,0.4c0,6-1,11.8-2.7,17.3l-4.7-1.2c-0.6,2.6-1.5,5.2-2.9,7.5l4.5,1.1
			c-9.1,18.5-28.2,31.2-50.2,31.2c-11.9,0-22.9-3.7-32-10.1c0-3.5,0.2-6.8,0.4-9.8c8.4,7.4,19.5,11.9,31.6,11.9
			c26.5,0,48-21.5,48-48c0-0.8,0-1.6-0.1-2.5h0.4v0.1L139.7,219.1z"/>
		<path d="M139.7,219.1l-7.6-1.9v-0.1v-4l7.5,1.9C139.6,216.3,139.7,217.7,139.7,219.1z"/>
		<path d="M139.5,214.9L132,213v4h-0.4c-0.5-10.1-4.2-19.4-10-26.9c-8.1-10.5-20.6-17.6-34.7-18.5l0.1-2.1c1.4,0,2.7,0,4.1,0.1
			l1.4-5.4C117.7,168.2,137.4,189.1,139.5,214.9z"/>
		<path d="M132.3,235.6l4.7,1.2c-0.8,2.6-1.8,5.1-3.1,7.5l-4.5-1.1C130.7,240.8,131.6,238.3,132.3,235.6z"/>
		<path class="st0" d="M131.6,217.1c0,0.8,0.1,1.6,0.1,2.5c0,26.5-21.5,48-48,48c-12.1,0-23.2-4.5-31.6-11.9c0.4-4.7,1-8.8,1.7-12.1
			c0.2-1.1,0.4-2.1,0.6-3.1c6.5,9.1,17.2,15.1,29.3,15.1c19.9,0,36-16.1,36-36c0-8.3-2.8-16-7.6-22.1c2.6-2.4,5.7-4.8,9.5-7.3
			C127.5,197.7,131.1,207,131.6,217.1z"/>
		<path d="M112.1,197.4c4.8,6.1,7.6,13.8,7.6,22.1c0,19.9-16.1,36-36,36c-12.1,0-22.8-6-29.3-15.1c0.4-2.1,0.8-3.9,1.3-5.5
			c5.4,9.9,16,16.6,28,16.6c17.7,0,32-14.4,32-32c0-7.2-2.4-13.9-6.4-19.3C110.1,199.3,111,198.4,112.1,197.4z"/>
		<path d="M112.1,197.4c-1,0.9-2,1.9-2.8,2.8c-5.9-7.7-15.1-12.7-25.6-12.7c-17.6,0-32,14.4-32,32c0,5.6,1.4,10.8,4,15.4
			c-0.4,1.6-0.8,3.4-1.3,5.5c-4.2-5.9-6.7-13.1-6.7-20.9c0-19.9,16.2-36,36-36C95.2,183.5,105.5,189,112.1,197.4z"/>
		<path class="st0" d="M109.2,200.3c4,5.4,6.4,12,6.4,19.3c0,17.6-14.3,32-32,32c-12.1,0-22.6-6.7-28-16.6c1.2-4.6,2.7-7.4,5.5-8.9
			c2.9-1.5,4.6-0.2,17.5,1.7c12.8,1.9,15.2,1.2,16.9,0c3.9-2.7,3.9-7.6,5.1-12.4C101.8,210.9,104.1,205.8,109.2,200.3z"/>
		<path d="M92.5,164.2l-1.4,5.4c-1.4-0.1-2.7-0.1-4.1-0.1l1.4-5.8C89.9,163.9,91.2,164,92.5,164.2z"/>
		<path d="M88.5,163.7l-1.4,5.8l-0.1,2.1c-1.1-0.1-2.2-0.1-3.3-0.1c-4.1,0-8.2,0.5-12,1.5l-0.3-2.9c0.3,0,0.6-0.1,0.9-0.1l1.4-5.6
			c3.2-0.6,6.5-0.9,9.9-0.9C85.3,163.5,86.9,163.6,88.5,163.7z"/>
		<path d="M73.8,164.4l-1.4,5.6c-0.3,0-0.6,0.1-0.9,0.1c-2.7,0.3-5.3,0.9-7.9,2.1l1.4-5.4C67.8,165.8,70.7,165,73.8,164.4z"/>
		<path d="M71.4,170.1l0.3,2.9c-20.7,5.3-36,24.2-36,46.5c0,14.4,6.3,27.3,16.4,36.1c-0.2,3-0.4,6.3-0.4,9.8
			c-14.5-10.1-24-26.9-24-45.9c0-24.3,15.5-45,37.2-52.8l-1.4,5.4C66.1,171.1,68.7,170.4,71.4,170.1z"/>
	</g>
	<g>
	</g>
</g>
</svg>
