<?xml version="1.0" encoding="utf-8"?>
<!-- Generator: Adobe Illustrator 26.3.1, SVG Export Plug-In . SVG Version: 6.00 Build 0)  -->
<svg version="1.1" id="Layer_1" xmlns="http://www.w3.org/2000/svg" xmlns:xlink="http://www.w3.org/1999/xlink" x="0px" y="0px"
	 viewBox="0 0 500 500" style="enable-background:new 0 0 500 500;" xml:space="preserve">
<style type="text/css">
	.st0{fill:#231F20;}
	.st1{fill:#F6F6F6;}
	.st2{fill:#FFFFFF;}
	.st3{fill:none;stroke:#000000;stroke-width:8;stroke-miterlimit:40;}
	.st4{fill:none;stroke:#000000;stroke-width:4;stroke-miterlimit:40;}
	.st5{fill:none;stroke:#000000;stroke-width:4;stroke-linejoin:round;stroke-miterlimit:40;}
	.st6{fill:none;stroke:#000000;stroke-width:4;stroke-linecap:round;stroke-linejoin:round;stroke-miterlimit:40;}
	.st7{fill:none;stroke:#000000;stroke-width:0.5;stroke-linecap:round;stroke-linejoin:round;}
</style>
<g>
	<g id="XMLID_00000165956437418855220090000011855451013750631571_">
		<g>
			<path class="st0" d="M476.7,258.1v141.2c0,11.8-9.6,21.4-21.4,21.4H170.1c-10.9,0-20-8.2-21.2-18.9c0.1,0,0.2,0,0.2,0
				c2.2,0,4-1.8,4-4s-1.8-4-4-4c-0.1,0-0.2,0-0.4,0v-98.6h8v104.1c0,7.4,6,13.4,13.4,13.4h285.2c7.4,0,13.4-6,13.4-13.4V258.1
				c0-7.4-6-13.4-13.4-13.4H335.2v-8h120.1C467.2,236.7,476.7,246.3,476.7,258.1z"/>
			<path class="st1" d="M312.1,392.7h120.1c1.1,0,2-0.9,2-2c0-9.9,7.4-17.9,16.5-17.9c1.1,0,2-0.9,2-2v-84.1c0-1.1-0.9-2-2-2
				c-9.1,0-16.5-8-16.5-17.9c0-1.1-0.9-2-2-2h-97v-20h120.1c7.4,0,13.4,6,13.4,13.4v141.2c0,7.4-6,13.4-13.4,13.4H170.1
				c-7.4,0-13.4-6-13.4-13.4V295.2h16v75.6c0,1.1,0.9,2,2,2c9.1,0,16.5,8,16.5,17.9c0,1.1,0.9,2,2,2h21.5c1.1,0,2-0.9,2-2
				s-0.9-2-2-2h-19.5c-0.9-10.5-8.7-18.8-18.5-19.8v-73.7h3.1c1.6,21.9-5.3,36.8,9.1,53c26.4,18.9,80.9,15.5,117.8,40.5h-51.9
				c-1.1,0-2,0.9-2,2c0,1.1,0.9,2,2,2H312.1z M248.7,390.7c0-1.1-0.9-2-2-2h-4c-1.1,0-2,0.9-2,2s0.9,2,2,2h4
				C247.8,392.7,248.7,391.8,248.7,390.7z"/>
			<path class="st2" d="M452.2,230.3l3.2,6.4H335.2v-12h101.5c3.9,0,7.4,1.8,9.8,4.8C447.9,231.3,450.4,231.7,452.2,230.3z"/>
			<path class="st0" d="M452.9,224.7c1.4,1.8,1,4.3-0.7,5.6c-1.8,1.3-4.3,1-5.6-0.7c-2.4-3.1-6-4.8-9.8-4.8H335.2v-8h101.5
				C443.1,216.7,449,219.6,452.9,224.7z"/>
			<path class="st0" d="M452.7,286.7v84.1c0,1.1-0.9,2-2,2c-9.1,0-16.5,8-16.5,17.9c0,1.1-0.9,2-2,2H312.1c-1.8-1.4-3.6-2.8-5.4-4
				h123.6c0.9-10.5,8.7-18.8,18.4-19.8v-80.4c-9.8-1-17.6-9.4-18.4-19.8h-95.1v-4h97c1.1,0,2,0.9,2,2c0,9.9,7.4,17.9,16.5,17.9
				C451.8,284.7,452.7,285.6,452.7,286.7z"/>
			<path class="st2" d="M448.7,288.6v80.4c-9.8,1-17.6,9.4-18.4,19.8H306.7c-36.8-25-91.4-21.5-117.8-40.5
				c-14.4-16.3-7.4-31.2-9.1-53H291c-11.7,7-19.6,19.8-19.6,34.4c0,22.1,18,40,40,40c22.1,0,40-17.9,40-40c0-17.7-11.5-32.7-27.5-38
				c6.8-4.2,11.4-11.8,11.4-20.4v-2.5h95.1C431.2,279.2,439,287.6,448.7,288.6z M399.4,329.7c0-7.7-6.3-14-14-14
				c-7.7,0-14,6.3-14,14s6.3,14,14,14S399.4,337.4,399.4,329.7z M251.4,329.7c0-7.7-6.3-14-14-14c-7.7,0-14,6.3-14,14s6.3,14,14,14
				S251.4,337.4,251.4,329.7z"/>
			<path class="st0" d="M385.4,315.7c7.7,0,14,6.3,14,14s-6.3,14-14,14s-14-6.3-14-14S377.6,315.7,385.4,315.7z M395.4,329.7
				c0-5.5-4.5-10-10-10s-10,4.5-10,10c0,5.5,4.5,10,10,10S395.4,335.2,395.4,329.7z"/>
			<circle class="st2" cx="385.4" cy="329.7" r="10"/>
			<path class="st0" d="M323.9,291.7c15.9,5.3,27.5,20.3,27.5,38c0,22.1-17.9,40-40,40c-22,0-40-17.9-40-40
				c0-14.6,7.9-27.4,19.6-34.4h9.8c-14.7,4.5-25.4,18.2-25.4,34.4c0,19.8,16.1,36,36,36s36-16.2,36-36c0-17.6-12.7-32.2-29.3-35.4
				C320.1,293.7,322.1,292.8,323.9,291.7z"/>
			<path class="st2" d="M318,294.3c16.7,3.1,29.3,17.8,29.3,35.4c0,19.8-16.1,36-36,36s-36-16.2-36-36c0-16.2,10.7-29.9,25.4-34.4
				h10.5C313.6,295.2,315.9,294.9,318,294.3z"/>
			<path class="st2" d="M335.2,268.7v2.5c0,8.6-4.5,16.2-11.4,20.4c-3.9-1.3-8.1-2-12.5-2c-7.4,0-14.4,2-20.4,5.6H179.8
				c-0.2-2.3-0.4-4.6-0.8-7.1c8.7-2,15.4-9.8,16.2-19.4H335.2z"/>
			<path class="st0" d="M335.2,264.7v4h-140c-0.8,9.6-7.5,17.5-16.2,19.4c-0.2-1.3-0.4-2.6-0.7-3.9c7.4-1.8,13-8.9,13-17.5
				c0-1.1,0.9-2,2-2H335.2z"/>
			<path class="st2" d="M169.9,261.2c-2.5-4.8-5.3-9.2-8.5-13.3c2.3-2,5.3-3.2,8.6-3.2h165.1v20h-142c-1.1,0-2,0.9-2,2
				c0,8.6-5.6,15.8-13,17.5c-0.7-3.3-1.6-6.8-2.9-10.5C173.8,269.3,172,265.1,169.9,261.2z"/>
			<path class="st0" d="M335.2,236.7v8H170.1c-3.3,0-6.3,1.2-8.6,3.2c-1.6-2.1-3.3-4.2-5.1-6.2c3.7-3.1,8.5-5,13.7-5H335.2z"/>
			<path class="st2" d="M335.2,224.7v12H170.1c-5.2,0-10,1.9-13.7,5c-4.6-5.1-9.6-9.8-14.9-14.1c2-1.9,4.6-2.9,7.6-2.9H335.2z"/>
			<path class="st0" d="M335.2,216.7v8H149.1c-3,0-5.6,1-7.6,2.9c-2.1-1.7-4.2-3.4-6.4-5c3.5-3.8,8.4-5.9,14-5.9H335.2z"/>
			<path class="st0" d="M323.9,291.7c-1.8,1.1-3.8,2-5.9,2.6c-2.2-0.4-4.4-0.6-6.7-0.6c-3.7,0-7.2,0.6-10.6,1.6H291
				c6-3.6,12.9-5.6,20.4-5.6C315.7,289.7,319.9,290.4,323.9,291.7z"/>
			<path class="st2" d="M318,294.3c-2.1,0.6-4.4,1-6.8,1h-10.5c3.4-1,6.9-1.6,10.6-1.6C313.6,293.7,315.9,293.9,318,294.3z"/>
			<path class="st0" d="M312.1,392.7h-57.3c-1.1,0-2-0.9-2-2c0-1.1,0.9-2,2-2h51.9C308.5,390,310.3,391.3,312.1,392.7z"/>
			<path class="st0" d="M246.7,388.7c1.1,0,2,0.9,2,2s-0.9,2-2,2h-4c-1.1,0-2-0.9-2-2s0.9-2,2-2H246.7z"/>
			<path class="st0" d="M237.4,315.7c7.7,0,14,6.3,14,14s-6.3,14-14,14s-14-6.3-14-14S229.6,315.7,237.4,315.7z M247.4,329.7
				c0-5.5-4.5-10-10-10s-10,4.5-10,10c0,5.5,4.5,10,10,10S247.4,335.2,247.4,329.7z"/>
			<circle class="st2" cx="237.4" cy="329.7" r="10"/>
			<path class="st0" d="M214.7,388.7c1.1,0,2,0.9,2,2s-0.9,2-2,2h-21.5c-1.1,0-2-0.9-2-2c0-9.9-7.4-17.9-16.5-17.9c-1.1,0-2-0.9-2-2
				v-75.6h4v73.7c9.8,1,17.6,9.4,18.5,19.8H214.7z"/>
			<path class="st2" d="M179.8,295.2h-3.1v-6.7c0.8-0.1,1.5-0.2,2.3-0.4C179.4,290.6,179.7,293,179.8,295.2z"/>
			<path class="st0" d="M178.3,284.3c0.3,1.3,0.5,2.6,0.7,3.9c-0.7,0.2-1.5,0.3-2.3,0.4v6.7h-4v-8.6c0-0.5,0.2-1,0.6-1.4
				c0.4-0.4,0.9-0.6,1.4-0.6C176,284.7,177.1,284.5,178.3,284.3z"/>
			<path class="st1" d="M175.4,273.8c1.3,3.7,2.2,7.2,2.9,10.5c-1.1,0.3-2.3,0.4-3.5,0.4c-0.5,0-1,0.2-1.4,0.6
				c-0.4,0.4-0.6,0.9-0.6,1.4v8.6h-16v-34h13.2C172,265.1,173.8,269.3,175.4,273.8z"/>
			<path class="st1" d="M169.9,261.2h-13.2v-3.1c0-4.1,1.8-7.7,4.7-10.2C164.6,252,167.4,256.5,169.9,261.2z"/>
			<path class="st0" d="M161.5,247.9c-2.9,2.5-4.7,6.1-4.7,10.2v3.1h-8v-3.1c0-6.6,3-12.4,7.6-16.4
				C158.1,243.7,159.8,245.8,161.5,247.9z"/>
			<rect x="148.7" y="261.2" class="st0" width="8" height="34"/>
			<path class="st1" d="M136.7,241.2v-0.4c0-5.8,1.8-10.4,4.8-13.2c5.3,4.3,10.3,8.9,14.9,14.1c-4.7,3.9-7.6,9.8-7.6,16.4v3.1h-12
				V241.2z"/>
			<path class="st0" d="M149.1,393.9c2.2,0,4,1.8,4,4s-1.8,4-4,4c-0.1,0-0.1,0-0.2,0c-0.1-0.8-0.1-1.7-0.1-2.5v-5.5
				C148.9,393.9,149,393.9,149.1,393.9z"/>
			<path class="st0" d="M148.7,399.4c0,0.9,0.1,1.7,0.1,2.5c-11.2-0.1-20.1-9.1-20.1-16.6v-90h8v90c0,2.8,5.2,8.4,12,8.6V399.4z"/>
			<path class="st1" d="M148.7,295.2v98.6c-6.8-0.2-12-5.8-12-8.6v-90H148.7z"/>
			<rect x="136.7" y="261.2" class="st1" width="12" height="34"/>
			<path class="st0" d="M141.5,227.7c-3,2.8-4.8,7.4-4.8,13.2v0.4h-8v-0.4c0-7.6,2.4-13.9,6.4-18.2
				C137.3,224.3,139.4,226,141.5,227.7z"/>
			<rect x="128.7" y="261.2" class="st0" width="8" height="34"/>
			<rect x="128.7" y="241.2" class="st0" width="8" height="20"/>
			<path class="st1" d="M128.7,261.2v34H47.2c-13.3,0-24-10.7-24-24v-118h2h29H56c4.9,9.2,11,17.1,17.8,24H61.2c-4.4,0-8,3.6-8,8v24
				c0,4.4,3.6,8,8,8h40c4.4,0,8-3.6,8-8v-4.4c8.8,5.8,17.6,11.6,25.9,17.8c-4,4.3-6.4,10.6-6.4,18.2v0.4V261.2z"/>
			<path class="st1" d="M109.2,204.9v4.4c0,4.4-3.6,8-8,8h-40c-4.4,0-8-3.6-8-8v-24c0-4.4,3.6-8,8-8h12.6
				C84.4,187.9,96.7,196.5,109.2,204.9z"/>
			<path class="st1" d="M55.2,151.8l-1,1.5h-29v-4.6L45,118.2C46.8,131.2,50.4,142.2,55.2,151.8z"/>
			<path class="st1" d="M45,118.2l-19.8,30.4v-35.4h19.2C44.6,114.9,44.8,116.6,45,118.2z"/>
			<path class="st1" d="M44.4,113.2H25.2v35.4v4.6h-2v-50c0-7.9,3.9-15,9.8-19.4c2.3,3.3,9.8,7.1,10.6,14.9
				C43.7,103.9,44,108.7,44.4,113.2z"/>
		</g>
		<g>
			<path class="st3" d="M128.7,295.2H47.2c-13.3,0-24-10.7-24-24v-118v-50c0-7.9,3.9-15,9.8-19.4c4-2.9,8.9-4.6,14.2-4.6h264
				c13.3,0,24,10.7,24,24v10v103.5"/>
			<polygon class="st4" points="25.2,148.6 25.2,113.2 44.4,113.2 48.2,113.2 80.2,113.2 112.2,113.2 144.2,113.2 176.2,113.2 
				208.2,113.2 240.2,113.2 272.2,113.2 304.2,113.2 333.2,113.2 333.2,117.9 333.2,153.2 310.2,153.2 278.2,153.2 246.2,153.2 
				214.2,153.2 182.2,153.2 150.2,153.2 118.2,153.2 86.2,153.2 56,153.2 54.2,153.2 25.2,153.2 			"/>
			<rect x="137.2" y="185.2" class="st5" width="168" height="24"/>
			<path class="st5" d="M109.2,204.9v4.4c0,4.4-3.6,8-8,8h-40c-4.4,0-8-3.6-8-8v-24c0-4.4,3.6-8,8-8h12.6h27.4c4.4,0,8,3.6,8,8
				V204.9z"/>
			<line class="st6" x1="53.2" y1="241.2" x2="128.7" y2="241.2"/>
			<line class="st6" x1="53.2" y1="261.2" x2="128.7" y2="261.2"/>
			<polyline class="st4" points="54.2,153.2 55.2,151.8 80.2,113.2 			"/>
			<polyline class="st4" points="25.2,148.6 45,118.2 48.2,113.2 			"/>
			<line class="st4" x1="86.2" y1="153.2" x2="112.2" y2="113.2"/>
			<line class="st4" x1="118.2" y1="153.2" x2="144.2" y2="113.2"/>
			<line class="st4" x1="150.2" y1="153.2" x2="176.2" y2="113.2"/>
			<line class="st4" x1="182.2" y1="153.2" x2="208.2" y2="113.2"/>
			<line class="st4" x1="214.2" y1="153.2" x2="240.2" y2="113.2"/>
			<line class="st4" x1="246.2" y1="153.2" x2="272.2" y2="113.2"/>
			<line class="st4" x1="278.2" y1="153.2" x2="304.2" y2="113.2"/>
			<line class="st4" x1="310.2" y1="153.2" x2="333.2" y2="117.9"/>
			<path class="st7" d="M156.4,241.8c3.7-3.1,8.5-5,13.7-5h165.1h120.1c11.8,0,21.4,9.6,21.4,21.4v141.2c0,11.8-9.6,21.4-21.4,21.4
				H170.1c-10.9,0-20-8.2-21.2-18.9c-0.1-0.8-0.1-1.7-0.1-2.5v-5.5v-98.6v-34v-3.1C148.7,251.6,151.7,245.7,156.4,241.8z"/>
			<path class="st7" d="M156.7,295.2v104.1c0,7.4,6,13.4,13.4,13.4h285.2c7.4,0,13.4-6,13.4-13.4V258.1c0-7.4-6-13.4-13.4-13.4
				H335.2H170.1c-3.3,0-6.3,1.2-8.6,3.2c-2.9,2.5-4.7,6.1-4.7,10.2v3.1V295.2z"/>
			<path class="st7" d="M242.7,388.7h4c1.1,0,2,0.9,2,2s-0.9,2-2,2h-4c-1.1,0-2-0.9-2-2S241.6,388.7,242.7,388.7z"/>
			<path class="st7" d="M178.3,284.3c7.4-1.8,13-8.9,13-17.5c0-1.1,0.9-2,2-2h142h97c1.1,0,2,0.9,2,2c0,9.9,7.4,17.9,16.5,17.9
				c1.1,0,2,0.9,2,2v84.1c0,1.1-0.9,2-2,2c-9.1,0-16.5,8-16.5,17.9c0,1.1-0.9,2-2,2H312.1h-57.3c-1.1,0-2-0.9-2-2c0-1.1,0.9-2,2-2
				h51.9h123.6c0.9-10.5,8.7-18.8,18.4-19.8v-80.4c-9.8-1-17.6-9.4-18.4-19.8h-95.1h-140c-0.8,9.6-7.5,17.5-16.2,19.4
				c-0.7,0.2-1.5,0.3-2.3,0.4v6.7v73.7c9.8,1,17.6,9.4,18.5,19.8h19.5c1.1,0,2,0.9,2,2s-0.9,2-2,2h-21.5c-1.1,0-2-0.9-2-2
				c0-9.9-7.4-17.9-16.5-17.9c-1.1,0-2-0.9-2-2v-75.6v-8.6c0-0.5,0.2-1,0.6-1.4c0.4-0.4,0.9-0.6,1.4-0.6
				C176,284.7,177.1,284.5,178.3,284.3z"/>
			<path class="st7" d="M291,295.2c6-3.6,12.9-5.6,20.4-5.6c4.4,0,8.6,0.7,12.5,2c15.9,5.3,27.5,20.3,27.5,38c0,22.1-17.9,40-40,40
				c-22,0-40-17.9-40-40C271.4,315,279.2,302.2,291,295.2z"/>
			<path class="st7" d="M300.8,295.2c-14.7,4.5-25.4,18.2-25.4,34.4c0,19.8,16.1,36,36,36s36-16.2,36-36c0-17.6-12.7-32.2-29.3-35.4
				c-2.2-0.4-4.4-0.6-6.7-0.6C307.7,293.7,304.1,294.2,300.8,295.2z"/>
			<circle class="st7" cx="385.4" cy="329.7" r="14"/>
			<circle class="st7" cx="385.4" cy="329.7" r="10"/>
			<circle class="st7" cx="237.4" cy="329.7" r="14"/>
			<circle class="st7" cx="237.4" cy="329.7" r="10"/>
			<path class="st7" d="M135.1,222.7c3.5-3.8,8.4-5.9,14-5.9h186.1h101.5c6.4,0,12.2,2.9,16.1,7.9c1.4,1.8,1,4.3-0.7,5.6
				c-1.8,1.3-4.3,1-5.6-0.7c-2.4-3.1-6-4.8-9.8-4.8H335.2H149.1c-3,0-5.6,1-7.6,2.9c-3,2.8-4.8,7.4-4.8,13.2v0.4v20v34v90
				c0,2.8,5.2,8.4,12,8.6c0.1,0,0.2,0,0.4,0c2.2,0,4,1.8,4,4s-1.8,4-4,4c-0.1,0-0.1,0-0.2,0c-11.2-0.1-20.1-9.1-20.1-16.6v-90v-34
				v-20v-0.4C128.7,233.3,131.1,227,135.1,222.7z"/>
		</g>
	</g>
</g>
</svg>
