<?xml version="1.0" encoding="utf-8"?>
<!-- Generator: Adobe Illustrator 26.3.1, SVG Export Plug-In . SVG Version: 6.00 Build 0)  -->
<svg version="1.1" id="Layer_1" xmlns="http://www.w3.org/2000/svg" xmlns:xlink="http://www.w3.org/1999/xlink" x="0px" y="0px"
	 viewBox="0 0 400 400" style="enable-background:new 0 0 400 400;" xml:space="preserve">
<style type="text/css">
	.st0{fill:#F6F6F6;}
	.st1{fill:none;stroke:#000000;stroke-width:4;stroke-linecap:round;stroke-linejoin:round;stroke-miterlimit:40;}
	.st2{fill:none;stroke:#000000;stroke-width:8;stroke-linecap:round;stroke-linejoin:round;stroke-miterlimit:40;}
</style>
<g id="XMLID_00000058586757729032650010000008591843152513846915_">
	<g>
		<path class="st0" d="M330.3,124.3c1.5,6.9,2.1,14.2,1.5,21.8c-2.8,34.2-30.3,62-64.4,65.5c-12.2,1.2-23.7-0.6-34.1-4.8
			L116.4,323.7c-5.6,5.6-13,8.4-20.4,8.3c0.6-3,1.7-7.5,3.8-12.7c7.8-19.3,20-24.7,37.5-42.9c17.8-18.6,13-21.4,29.1-36.1
			c12.6-11.5,19.1-13.1,33.7-23.4c26.3-18.6,23.3-29.5,42.2-40c17-9.3,22.8-4.1,41.2-11.7C296.2,160,313.5,149.2,330.3,124.3
			L330.3,124.3z"/>
	</g>
	<g>
		<path class="st1" d="M300,181.8c-9.1,8.7-21,14.6-34,15.9"/>
		<path class="st1" d="M311.8,166c-1.4,2.8-3.1,5.5-5,8"/>
		<path class="st1" d="M316.3,154c-0.3,1.4-0.7,2.7-1.2,4"/>
		<line class="st1" x1="198" y1="181.8" x2="202" y2="177.8"/>
		<line class="st1" x1="186" y1="193.8" x2="192" y2="187.8"/>
		<line class="st1" x1="118" y1="261.8" x2="180" y2="199.8"/>
		<path class="st2" d="M330.3,124.3c-0.9-3.8-2-7.5-3.4-11.1h0l-42.5,42.5c-5.7,5.7-14.9,5.7-20.6,0l-19.4-19.4
			c-5.7-5.7-5.7-14.9,0-20.6l42.5-42.5c-8.3-3.3-17.3-5.2-26.8-5.2c-2,0-4,0.1-6.1,0.2c-34.2,2.8-62.1,30.3-65.5,64.4
			c-1.2,12.2,0.7,23.7,4.8,34.1L76.4,283.6c-11.1,11.1-11.1,29,0,40c5.4,5.4,12.5,8.2,19.6,8.3c7.4,0.1,14.8-2.7,20.4-8.3
			l116.9-116.9c10.4,4.2,22,6.1,34.1,4.8c34.1-3.5,61.6-31.4,64.4-65.5C332.4,138.6,331.8,131.2,330.3,124.3z"/>
		<circle class="st1" cx="96" cy="304" r="10"/>
	</g>
</g>
</svg>
