<?xml version="1.0" encoding="utf-8"?>
<!-- Generator: Adobe Illustrator 26.3.1, SVG Export Plug-In . SVG Version: 6.00 Build 0)  -->
<svg version="1.1" id="Layer_1" xmlns="http://www.w3.org/2000/svg" xmlns:xlink="http://www.w3.org/1999/xlink" x="0px" y="0px"
	 viewBox="0 0 400 400" style="enable-background:new 0 0 400 400;" xml:space="preserve">
<style type="text/css">
	.st0{fill:#F6F6F6;}
</style>
<g id="XMLID_00000145024853185993814780000006063949396474152628_">
	<g>
		<path class="st0" d="M358.3,125.5v101h-62.7c2.7-3.2,4.3-5.9,5.9-9.6c7.8-17.9,2.3-26,8.2-47.2c4.7-17.1,15.1-36.6,37.6-55.2
			C353.4,114.5,358.3,119.4,358.3,125.5z"/>
		<path class="st0" d="M358.3,298.6v28.9c0,6.1-4.9,11-11,11h-29l0.1-21.6c0-4.9,2.4-9.5,6.6-12.9c4.3-3.5,9.9-5.5,15.9-5.5
			c0.1,0,0.1,0,0.2,0L358.3,298.6z M346.3,318.5c0-4.4-3.5-8-7.9-8c0,0,0,0-0.1,0c-2.1,0-4.1,0.8-5.6,2.3c-1.5,1.5-2.4,3.5-2.4,5.6
			c0,4.4,3.5,8,8,8.1c0,0,0,0,0.1,0c2.1,0,4.1-0.8,5.6-2.3C345.4,322.6,346.3,320.6,346.3,318.5z"/>
		<path class="st0" d="M218.3,302.7v35.7h-14c2.1-9.1,6-21.9,13.7-35.2C218.1,303.1,218.2,302.9,218.3,302.7z"/>
		<path class="st0" d="M358.3,230.5v64.1l-17.1-0.1c-0.1,0-0.1,0-0.2,0c-6.9,0-13.5,2.3-18.5,6.4c-5.1,4.2-8,9.9-8,16l-0.1,21.6h-92
			v-41.9c5.9-8.2,14.2-16.2,34-34.1c19.2-17.3,29.4-26,35.5-32H358.3z"/>
		<path d="M366.3,296.6C366.3,296.6,366.3,296.6,366.3,296.6c0,1.1-0.9,2-2,2h0l-6,0v-4l6,0C365.4,294.6,366.3,295.5,366.3,296.6z"
			/>
		<path d="M366.3,228.5v68.1c0-1.1-0.9-2-2-2l-6,0v-64.1h6C365.4,230.5,366.3,229.6,366.3,228.5z"/>
		<path d="M364.3,226.5c1.1,0,2,0.9,2,2c0,1.1-0.9,2-2,2h-6v-4H364.3z"/>
		<path d="M358.3,294.6v4l-17.2-0.1c-0.1,0-0.1,0-0.2,0c-6,0-11.7,1.9-15.9,5.5c-4.2,3.5-6.6,8.1-6.6,12.9l-0.1,21.6h-4l0.1-21.6
			c0-6.1,2.9-11.8,8-16c5-4.1,11.5-6.4,18.5-6.4c0.1,0,0.1,0,0.2,0L358.3,294.6z"/>
		<path d="M358.3,226.5v4h-66.5c1.5-1.5,2.7-2.8,3.8-4H358.3z"/>
		<path d="M338.4,310.5c4.4,0,8,3.6,7.9,8c0,2.1-0.9,4.1-2.4,5.6c-1.5,1.5-3.5,2.3-5.6,2.3c0,0,0,0-0.1,0c-4.4,0-8-3.6-8-8.1
			c0-2.1,0.9-4.1,2.4-5.6C334.2,311.3,336.2,310.5,338.4,310.5C338.3,310.5,338.3,310.5,338.4,310.5z M342.3,318.5c0-2.2-1.8-4-4-4
			c-1-0.1-2.1,0.4-2.8,1.1c-0.8,0.8-1.2,1.8-1.2,2.8c0,2.2,1.8,4,4,4c1.1,0.1,2.1-0.4,2.8-1.2C341.9,320.5,342.3,319.5,342.3,318.5z
			"/>
		<path d="M314.3,338.5h4l0,2c0,1.1-0.9,2-2,2h0c-1.1,0-2-0.9-2-2L314.3,338.5z"/>
		<path d="M232.3,226.5h63.3c-1.1,1.2-2.3,2.5-3.8,4h-59.5c-1.1,0-2-0.9-2-2C230.3,227.4,231.2,226.5,232.3,226.5z"/>
		<path d="M267.4,101.9c0.4-0.4,0.6-0.9,0.5-1.5c0-0.7-0.1-1.3-0.1-1.9h11.1c1.9,0,3.4,1.5,3.4,3.4l0,4.6h-4v-4h-11.8
			C266.8,102.4,267.1,102.2,267.4,101.9z"/>
		<path d="M267.9,100.4c0,0.6-0.2,1.1-0.5,1.5c-0.3,0.3-0.6,0.5-0.9,0.6h-10.8c-1.1,0-1.9-0.9-2-1.9c0-0.7-0.1-1.4-0.1-2.1h4v0
			l6.2,0c0,0,0,0,0-0.1h4C267.9,99.1,267.9,99.8,267.9,100.4z"/>
		<path d="M267.8,98.5h-4c-2.2-27.3-11.4-40-28.7-40h-62.8c-14.7,0-26.5,16.7-28.7,40h-4c2.2-25.6,15.8-44,32.7-44h62.8
			C254.7,54.5,265.5,68.8,267.8,98.5z"/>
		<path d="M255.7,102.5h10.8c-0.2,0.1-0.4,0.1-0.5,0.1c0,0,0,0,0,0L255.7,102.5z"/>
		<path d="M263.8,98.5C263.8,98.5,263.8,98.5,263.8,98.5l-6.2,0v0H263.8z"/>
		<path d="M257.6,98.5h-4c-1.1-13.1-8.2-28-15.7-28h-68.4c-3.4,0-6.2,2.4-8.1,4.4c-5.1,5.7-8.1,15-7.6,23.6h-4
			c-0.5-9.5,2.9-19.8,8.6-26.2c3.4-3.8,7.2-5.8,11-5.8h68.4C248.9,66.5,256.5,84.5,257.6,98.5z"/>
		<path d="M255.7,102.5h-13.4v4h-4v-4.6c0-1.9,1.5-3.4,3.4-3.4h11.8c0.1,0.7,0.1,1.4,0.1,2.1C253.7,101.6,254.6,102.4,255.7,102.5z"
			/>
		<path d="M278.3,106.5h4v0.6c0,1.9-1.5,3.4-3.4,3.4h-37.1c-1.9,0-3.4-1.5-3.4-3.4v-0.6h4H278.3z"/>
		<path d="M222.3,338.5v2c0,1.1-0.9,2-2,2h-28c-1.1,0-2-0.9-2-2c0-1.1,0.9-2,2-2h12h14H222.3z"/>
		<path d="M222.3,296.5v41.9h-4v-35.7C219.6,300.6,220.9,298.5,222.3,296.5z"/>
		<path d="M222.3,223.8v72.8c-1.4,2-2.7,4-4,6.2v-75.3c1.1-0.7,2.1-1.5,3-2.5C221.6,224.6,222,224.2,222.3,223.8z"/>
		<path d="M222.3,220.1v3.7c-0.3,0.4-0.7,0.8-1,1.2c-0.9,0.9-1.9,1.8-3,2.5v-3.9c0.6,0.2,1.3,0.2,1.9-0.5
			C221,222.1,221.7,221.1,222.3,220.1z"/>
		<path d="M222.3,181.3v2.3c-0.9-1.2-2.2-2.1-4-2.4v-3.6C219.8,178.5,221.2,179.8,222.3,181.3z"/>
		<path d="M222.3,136.5v44.8c-1.1-1.4-2.5-2.7-4-3.8v-41c0-1.1,0.9-2,2-2C221.4,134.5,222.3,135.4,222.3,136.5z"/>
		<path d="M222.3,123.4v5.7c0,0.8-0.9,1.4-2,1.4c-1.1,0-2-0.6-2-1.4v-5.7c0-0.8,0.9-1.4,2-1.4C221.4,122,222.3,122.6,222.3,123.4z"
			/>
		<path d="M222.3,114.5v2c0,1.1-0.9,2-2,2c-1.1,0-2-0.9-2-2v-2H222.3z"/>
		<path d="M222.3,108.5v6h-4v-4h-28v4h-4v-6c0-1.1,0.9-2,2-2h32C221.4,106.5,222.3,107.3,222.3,108.5z"/>
		<path d="M364.3,226.5h-6v-101c0-6.1-4.9-11-11-11h-125v-6c0-1.1-0.9-2-2-2h18v0.6c0,1.9,1.5,3.4,3.4,3.4h37.1
			c1.9,0,3.4-1.5,3.4-3.4v-0.6h65c10.5,0,19,8.5,19,19v103C366.3,227.4,365.4,226.5,364.3,226.5z"/>
		<path d="M218.3,223.5v3.9c-2.4,1.6-5.1,2.6-8,2.9l0-4c3.1-0.4,5.9-1.8,8.1-4.1c2.6-2.8,4.1-6.4,4.1-10.2l-0.1-19.2
			c0-4.7-2.2-8.9-5.6-11.5l1.6-0.1c1.8,0.4,3.1,1.2,4,2.4v-2.3c2.5,3.1,4,7.1,4,11.4l0.1,19.2c0,4.4-1.4,8.5-4.1,11.8v-3.7
			c-0.6,1-1.3,2-2.1,2.9C219.6,223.7,218.9,223.8,218.3,223.5z"/>
		<path d="M218.3,212.6c0,4.9-3.4,8.9-8,9.7v-4.1c2.3-0.7,4-2.9,4-5.6l-0.1-20.4c0-3.2-2.5-5.7-5.6-5.7h0l-8.7,0.1
			c-1.5,0-2.9,0.6-3.9,1.7c-1.1,1.1-1.6,2.5-1.6,4.1l0.1,20.4c0,1.5,0.6,3,1.7,4.1c0.6,0.7,1.4,1.1,2.2,1.4v4.1
			c-1.9-0.3-3.6-1.3-5.1-2.7c-1.8-1.8-2.8-4.3-2.8-6.9l-0.1-20.4c0-2.6,1-5,2.7-6.9c1.8-1.9,4.2-2.9,6.8-2.9l8.7-0.1
			c5.1,0,9.6,4.3,9.6,9.7L218.3,212.6z"/>
		<path d="M218.3,177.5v3.6l-1.6,0.1c-2.3-1.8-5.3-2.9-8.5-2.8l-8.2,0.1c-3.1,0-6,1.1-8.3,2.9h-1.4v-3.9c2.8-1.9,6.1-3,9.7-3
			l8.2-0.1h0.1C212,174.4,215.4,175.6,218.3,177.5z"/>
		<rect x="190.3" y="110.5" width="28" height="4"/>
		<path d="M210.3,218.2v4.1c-0.5,0.1-1,0.1-1.5,0.1l-1.7,0v-4l1.6,0C209.3,218.4,209.8,218.3,210.3,218.2z"/>
		<path d="M210.3,226.3l0,4c-0.6,0.1-1.1,0.1-1.7,0.1l-1.7,0c0.2-0.3,0.3-0.6,0.3-1v-3h1.4C209.1,226.5,209.7,226.4,210.3,226.3z"/>
		<path d="M206.3,210.5h-4v8h-1.1l-1.2,0h0c-0.6,0-1.1-0.1-1.7-0.3v-8.2c0-1.9,1.6-3.5,3.5-3.5h5c1.9,0,3.5,1.6,3.5,3.5l0,8.2
			c-0.5,0.2-1,0.2-1.5,0.2l-1.6,0v4l1.7,0c0.5,0,1-0.1,1.5-0.1v4.1c-0.6,0.1-1.1,0.1-1.7,0.1h-1.4v3c0,0.4-0.1,0.7-0.3,1h-0.6
			L206.3,210.5z"/>
		<path d="M200.4,226.5h0.1v4h-0.1h-0.1c-0.7,0-1.3,0-2-0.1v-4C199,226.5,199.6,226.5,200.4,226.5z"/>
		<path d="M200.5,226.5h-0.1c-0.7,0-1.4,0-2.1-0.1l0-4.1c0.6,0.1,1.1,0.2,1.7,0.2h0.1h0.4V220c0-0.7,0.3-1.2,0.7-1.5h1.1l0,16h4v-4
			h0.6l1.7,0c0.6,0,1.1,0,1.7-0.1v4.6c0,1.9-1.6,3.5-3.5,3.5h-5c-1.9,0-3.5-1.6-3.5-3.5v-4.6c0.6,0.1,1.3,0.1,2,0.1h0.1h0.1V226.5z"
			/>
		<path d="M200,218.5l1.2,0c-0.4,0.3-0.7,0.8-0.7,1.5v2.5h-0.4H200c-0.6,0-1.1-0.1-1.7-0.2v-4.1C198.9,218.4,199.4,218.5,200,218.5
			L200,218.5z"/>
		<path d="M190.3,340.5c0,1.1,0.9,2,2,2h28c1.1,0,2-0.9,2-2v-2h92l0,2c0,1.1,0.9,2,2,2h0c1.1,0,2-0.9,2-2l0-2h29c6.1,0,11-4.9,11-11
			v-28.9l6,0h0c1.1,0,2-0.9,2-2v30.8c0,10.5-8.5,19-19,19h-282c-10.5,0-19-8.5-19-19v-202c0-10.5,8.5-19,19-19h61v0.6
			c0,1.9,1.5,3.4,3.4,3.4h37.1c1.9,0,3.4-1.5,3.4-3.4v-0.6h18c-1.1,0-2,0.9-2,2v6h-121c-6.1,0-11,4.9-11,11v101h-2c-1.1,0-2,0.9-2,2
			c0,1.1,0.9,2,2,2h2v64.1l-2,0c-1.1,0-2,0.9-2,2c0,1.1,0.9,2,2,2c0,0,0,0,0,0l2,0v28.9c0,6.1,4.9,11,11,11h29l0,2c0,1.1,0.9,2,2,2
			c0,0,0,0,0,0c1.1,0,2-0.9,2-2l0-2h94C191.2,338.5,190.3,339.4,190.3,340.5z"/>
		<path d="M190.3,227.4v101c0,1.1-0.9,2-2,2c-1.1,0-2-0.9-2-2V223.7c0.4,0.5,0.9,1,1.3,1.5C188.5,226,189.4,226.8,190.3,227.4z"/>
		<path d="M190.3,223v4.5c-0.9-0.6-1.8-1.4-2.7-2.2c-0.5-0.5-0.9-1-1.3-1.5v-5.2c0.8,1.3,1.7,2.5,2.6,3.6
			C189.3,222.6,189.8,222.9,190.3,223z"/>
		<path d="M190.3,114.5v63c-1.5,1-2.9,2.2-4,3.7v-66.7H190.3z"/>
		<path d="M190.3,181.6c-0.8-0.4-1.9-0.3-2.6,0.7c-0.5,0.7-1,1.4-1.4,2.1v-3.2c1.1-1.4,2.5-2.7,4-3.7v3.9V181.6z"/>
		<path d="M187.7,182.3c0.7-0.9,1.7-1,2.6-0.7v-0.3h1.4c-3.4,2.6-5.6,6.9-5.6,11.6l0.1,19.2c0,3.8,1.5,7.5,4.2,10.2
			c2.2,2.2,4.8,3.6,7.8,4v4c-2.9-0.3-5.6-1.3-8-3V223c-0.5-0.1-1-0.3-1.4-0.8c-0.9-1.2-1.8-2.4-2.6-3.6v5.2c-2.6-3.2-4-7.2-4-11.5
			l-0.1-19.2c0-4.5,1.5-8.6,4.1-11.8v3.2C186.8,183.7,187.2,183,187.7,182.3z"/>
		<path d="M180.3,226.5c1.1,0,2,0.9,2,2c0,1.1-0.9,2-2,2h-126v-4H180.3z"/>
		<path d="M153.5,101.8c0.4-0.4,0.6-1,0.5-1.6c-0.1-0.6-0.1-1.2-0.1-1.8h13c1.9,0,3.4,1.5,3.4,3.4l0,4.6h-4v-4h-14.2
			C152.6,102.5,153.2,102.2,153.5,101.8z"/>
		<path d="M154,100.2c0.1,0.6-0.1,1.1-0.5,1.6c-0.4,0.4-0.9,0.7-1.5,0.7h-10.5c-0.6,0-1.1-0.2-1.5-0.6c-0.4-0.4-0.6-0.9-0.5-1.5
			c0-0.6,0.1-1.2,0.1-1.9h4h6.2h4C153.9,99.1,154,99.6,154,100.2z"/>
		<path d="M139.5,100.3c0,0.6,0.2,1.1,0.5,1.5c0.4,0.4,0.9,0.6,1.5,0.6h-11.2v4h-4v-4.6c0-1.9,1.5-3.4,3.4-3.4h9.9
			C139.6,99.1,139.6,99.7,139.5,100.3z"/>
		<path d="M170.3,107c0,1.9-1.5,3.4-3.4,3.4h-37.1c-1.9,0-3.4-1.5-3.4-3.4v-0.6h4h36h4V107z"/>
		<path d="M98.3,340.4c0,1.1-0.9,2-2,2c0,0,0,0,0,0c-1.1,0-2-0.9-2-2l0-2h4L98.3,340.4z"/>
		<path d="M98.2,316.9l0.1,21.6h-4l-0.1-21.6c0-4.9-2.3-9.5-6.3-13c-4.1-3.5-9.6-5.5-15.3-5.4l-18.3,0.1v-4l18.3-0.1
			c0.1,0,0.1,0,0.2,0c6.7,0,12.9,2.3,17.7,6.4C95.4,305.1,98.1,310.8,98.2,316.9z"/>
		<path d="M82.3,318.4c0,4.4-3.5,8-8,8.1c0,0,0,0,0,0c-2.1,0-4.1-0.8-5.6-2.3c-1.5-1.5-2.4-3.5-2.4-5.6c0-4.4,3.5-8,7.9-8
			c2.3,0.1,4.2,0.8,5.7,2.3C81.4,314.3,82.3,316.3,82.3,318.4z M74.3,322.5c2.2,0,4-1.8,4-4c0-1.1-0.4-2.1-1.2-2.8
			c-0.8-0.8-1.8-1.1-2.8-1.1c0,0,0,0,0,0c-2.2,0-4,1.8-4,4c0,1.1,0.4,2.1,1.2,2.8C72.2,322,73.2,322.5,74.3,322.5
			C74.3,322.5,74.3,322.5,74.3,322.5z"/>
		<path d="M54.3,294.6v4l-2,0c0,0,0,0,0,0c-1.1,0-2-0.9-2-2c0-1.1,0.9-2,2-2L54.3,294.6z"/>
		<path d="M54.3,226.5v4h-2c-1.1,0-2-0.9-2-2c0-1.1,0.9-2,2-2H54.3z"/>
	</g>
	<g>
	</g>
</g>
</svg>
